<svg xmlns="http://www.w3.org/2000/svg" xmlns:xlink="http://www.w3.org/1999/xlink" version="1.1" x="0px" y="0px" viewBox="0 0 100 100" enable-background="new 0 0 100 100" xml:space="preserve"><g><path fill="#000000" d="M64.1,79.184h-1.81l3.094,11.334c0.283,1.038,1.224,1.721,2.251,1.721c0.204,0,0.411-0.027,0.616-0.083   c1.244-0.339,1.977-1.623,1.637-2.867l-3.488-12.775c0.016,0.111,0.034,0.221,0.034,0.336C66.435,78.138,65.39,79.184,64.1,79.184z   "></path><path fill="#000000" d="M44.245,76.849c0-1.29,1.045-2.335,2.335-2.335h2.992l1.565-5.732h-1.003c-1.29,0-2.335-1.045-2.335-2.335   s1.045-2.335,2.335-2.335h2.278l2.645-9.688l-4.507-1.223l-9.853,36.087c-0.34,1.244,0.393,2.528,1.637,2.867   c1.243,0.34,2.527-0.393,2.867-1.637l3.095-11.334H46.58C45.29,79.184,44.245,78.138,44.245,76.849z"></path><path fill="#000000" d="M58.175,64.112h2.371c1.29,0,2.335,1.045,2.335,2.335s-1.045,2.335-2.335,2.335H59.45l1.565,5.732H64.1   c0.957,0,1.777,0.577,2.138,1.401l-5.442-19.934l-5.228-1.419L58.175,64.112z"></path><path fill="#000000" d="M17.279,41.94c-0.927-1.691-1.118-3.644-0.539-5.5l1.16-3.712c0.956-3.062,3.883-5.2,7.116-5.2h0   c0.644,0,1.285,0.085,1.906,0.254l1.815,0.492l4.568-16.834c0,0-2.702-4.531-4.615-4.222C19.597,8.685,10.482,18.829,6.702,32.761   c-3.69,13.596-1.172,26.648,5.554,32.718c0.532,0.48,1.432,0.546,2.398,0.424v-7.598h2.433v7.005   c1.024-0.345,1.789-0.699,1.789-0.699l5.056-18.632l-2.307-0.626C19.75,44.842,18.206,43.631,17.279,41.94z"></path><polygon fill="#000000" points="19.063,37.166 19.063,37.166 19.643,35.31  "></polygon><g><path fill="#000000" d="M87.902,58.304c0.669,0,1.217,0.577,1.217,1.283c0,0.705,0.873,0.954,1.94,0.551    c1.067-0.402,2.828-3.574,3.147-4.595c0.319-1.021,0.433-3.014,0.253-4.429s-4.958-3.829-7.505-4.521l-23.388-6.347    c-2.547-0.691-6.715-1.822-9.262-2.514l-23.387-6.347c-2.547-0.691-5.012-1.333-5.478-1.426c0,0,0,0-0.421,0    c-2.127,0-2.127,0-2.127,0c-1.466,1.921-2.797,3.91-2.956,4.42c-0.159,0.51-0.42,1.346-0.58,1.856    c-0.159,0.51-0.143,2.086,0.037,3.501s4.958,3.83,7.505,4.521l55.159,14.969c2.547,0.691,4.631,0.766,4.631,0.166    S87.233,58.304,87.902,58.304z M54.352,48.586c-2.003-0.544-3.187-2.609-2.643-4.612c0.544-2.003,2.609-3.187,4.612-2.643    c2.003,0.544,3.187,2.609,2.643,4.612C58.42,47.946,56.355,49.129,54.352,48.586z"></path></g><polygon fill="#000000" points="89.118,60.869 89.118,58.304 86.685,58.304 86.685,60.485 86.685,63.007 86.685,82.333    89.118,82.333 89.118,63.314  "></polygon><polygon fill="#000000" points="14.654,58.304 14.654,65.902 14.654,92.797 17.088,92.797 17.088,65.309 17.088,58.304  "></polygon><polygon fill="#000000" points="82.548,82.333 82.548,91.094 93.255,91.094 93.255,82.333 89.118,82.333 86.685,82.333  "></polygon><path fill="#000000" d="M64.1,74.514h-3.085H49.572H46.58c-1.29,0-2.335,1.045-2.335,2.335s1.045,2.335,2.335,2.335h1.717H62.29   h1.81c1.29,0,2.335-1.045,2.335-2.335c0-0.115-0.018-0.226-0.034-0.336c-0.03-0.209-0.081-0.41-0.163-0.598   C65.877,75.091,65.057,74.514,64.1,74.514z"></path><path fill="#000000" d="M50.134,64.112c-1.29,0-2.335,1.045-2.335,2.335s1.045,2.335,2.335,2.335h1.003h8.313h1.096   c1.29,0,2.335-1.045,2.335-2.335s-1.045-2.335-2.335-2.335h-2.371h-5.763H50.134z"></path></g></svg>